<svg xmlns="http://www.w3.org/2000/svg" xmlns:xlink="http://www.w3.org/1999/xlink" width="200" zoomAndPan="magnify" viewBox="0 0 150 31.5" height="42" preserveAspectRatio="xMidYMid meet" version="1.0"><defs><g/></defs><g fill="#ff9898" fill-opacity="1"><g transform="translate(15.551792, 19.635497)"><g><path d="M 3.671875 -7.109375 C 4.179688 -7.109375 4.613281 -7.015625 4.96875 -6.828125 C 5.332031 -6.640625 5.601562 -6.378906 5.78125 -6.046875 C 5.96875 -5.710938 6.0625 -5.320312 6.0625 -4.875 C 6.0625 -4.425781 5.96875 -4.035156 5.78125 -3.703125 C 5.601562 -3.367188 5.332031 -3.109375 4.96875 -2.921875 C 4.613281 -2.742188 4.179688 -2.65625 3.671875 -2.65625 L 2.328125 -2.65625 L 2.328125 0 L 0.921875 0 L 0.921875 -7.109375 Z M 3.484375 -3.765625 C 4.265625 -3.765625 4.65625 -4.132812 4.65625 -4.875 C 4.65625 -5.625 4.265625 -6 3.484375 -6 L 2.328125 -6 L 2.328125 -3.765625 Z M 3.484375 -3.765625 "/></g></g></g><g fill="#ff9898" fill-opacity="1"><g transform="translate(22.046045, 19.635497)"><g><path d="M 6.8125 0 L 5.34375 0 L 4.8125 -1.640625 L 2.078125 -1.640625 L 1.546875 0 L 0.109375 0 L 2.5625 -7.109375 L 4.359375 -7.109375 Z M 3.375 -5.625 L 2.46875 -2.8125 L 4.421875 -2.8125 L 3.5 -5.625 Z M 3.375 -5.625 "/></g></g></g><g fill="#ff9898" fill-opacity="1"><g transform="translate(28.972929, 19.635497)"><g><path d="M 0.921875 0 L 0.921875 -7.109375 L 3.78125 -7.109375 C 4.507812 -7.109375 5.0625 -6.9375 5.4375 -6.59375 C 5.8125 -6.257812 6 -5.789062 6 -5.1875 C 6 -4.757812 5.890625 -4.40625 5.671875 -4.125 C 5.453125 -3.851562 5.125 -3.644531 4.6875 -3.5 L 4.6875 -3.40625 C 4.914062 -3.300781 5.097656 -3.15625 5.234375 -2.96875 C 5.367188 -2.78125 5.5 -2.5 5.625 -2.125 L 6.34375 0 L 4.890625 0 L 4.203125 -2.125 C 4.128906 -2.332031 4.046875 -2.492188 3.953125 -2.609375 C 3.867188 -2.734375 3.753906 -2.820312 3.609375 -2.875 C 3.472656 -2.925781 3.296875 -2.953125 3.078125 -2.953125 L 2.328125 -2.953125 L 2.328125 0 Z M 3.609375 -4.078125 C 4.285156 -4.078125 4.625 -4.394531 4.625 -5.03125 C 4.625 -5.675781 4.285156 -6 3.609375 -6 L 2.328125 -6 L 2.328125 -4.078125 Z M 3.609375 -4.078125 "/></g></g></g><g fill="#ff9898" fill-opacity="1"><g transform="translate(35.617876, 19.635497)"><g><path d="M 6.8125 0 L 5.34375 0 L 4.8125 -1.640625 L 2.078125 -1.640625 L 1.546875 0 L 0.109375 0 L 2.5625 -7.109375 L 4.359375 -7.109375 Z M 3.375 -5.625 L 2.46875 -2.8125 L 4.421875 -2.8125 L 3.5 -5.625 Z M 3.375 -5.625 "/></g></g></g><g fill="#ff9898" fill-opacity="1"><g transform="translate(42.54476, 19.635497)"><g><path d="M 2.28125 0 L 0.921875 0 L 0.921875 -7.109375 L 2.53125 -7.109375 L 5.390625 -2.53125 L 5.515625 -2.546875 L 5.515625 -7.109375 L 6.859375 -7.109375 L 6.859375 0 L 5.421875 0 L 2.40625 -4.890625 L 2.28125 -4.875 Z M 2.28125 0 "/></g></g></g><g fill="#ff9898" fill-opacity="1"><g transform="translate(50.336896, 19.635497)"><g><path d="M 5.703125 -7.109375 L 5.703125 -5.921875 L 3.640625 -5.921875 L 3.640625 0 L 2.25 0 L 2.25 -5.921875 L 0.1875 -5.921875 L 0.1875 -7.109375 Z M 5.703125 -7.109375 "/></g></g></g><g fill="#ff9898" fill-opacity="1"><g transform="translate(56.228389, 19.635497)"><g><path d="M 3.15625 0.109375 C 2.65625 0.109375 2.210938 0.046875 1.828125 -0.078125 C 1.453125 -0.203125 1.132812 -0.363281 0.875 -0.5625 C 0.613281 -0.757812 0.414062 -0.972656 0.28125 -1.203125 L 1.0625 -2.15625 L 1.1875 -2.15625 C 1.394531 -1.832031 1.660156 -1.578125 1.984375 -1.390625 C 2.316406 -1.203125 2.707031 -1.109375 3.15625 -1.109375 C 3.53125 -1.109375 3.8125 -1.1875 4 -1.34375 C 4.1875 -1.507812 4.28125 -1.726562 4.28125 -2 C 4.28125 -2.175781 4.25 -2.316406 4.1875 -2.421875 C 4.132812 -2.535156 4.035156 -2.632812 3.890625 -2.71875 C 3.742188 -2.800781 3.550781 -2.875 3.3125 -2.9375 L 2.390625 -3.140625 C 1.753906 -3.285156 1.28125 -3.523438 0.96875 -3.859375 C 0.65625 -4.203125 0.5 -4.644531 0.5 -5.1875 C 0.5 -5.582031 0.597656 -5.929688 0.796875 -6.234375 C 1.003906 -6.546875 1.296875 -6.785156 1.671875 -6.953125 C 2.054688 -7.117188 2.519531 -7.203125 3.0625 -7.203125 C 3.601562 -7.203125 4.066406 -7.128906 4.453125 -6.984375 C 4.847656 -6.847656 5.179688 -6.628906 5.453125 -6.328125 L 4.765625 -5.375 L 4.640625 -5.375 C 4.429688 -5.582031 4.195312 -5.738281 3.9375 -5.84375 C 3.6875 -5.945312 3.394531 -6 3.0625 -6 C 2.675781 -6 2.378906 -5.929688 2.171875 -5.796875 C 1.972656 -5.660156 1.875 -5.472656 1.875 -5.234375 C 1.875 -5.015625 1.941406 -4.835938 2.078125 -4.703125 C 2.222656 -4.566406 2.46875 -4.460938 2.8125 -4.390625 L 3.75 -4.203125 C 4.4375 -4.054688 4.9375 -3.804688 5.25 -3.453125 C 5.5625 -3.109375 5.71875 -2.65625 5.71875 -2.09375 C 5.71875 -1.644531 5.617188 -1.253906 5.421875 -0.921875 C 5.234375 -0.597656 4.945312 -0.34375 4.5625 -0.15625 C 4.175781 0.0195312 3.707031 0.109375 3.15625 0.109375 Z M 3.15625 0.109375 "/></g></g></g><g fill="#ff9898" fill-opacity="1"><g transform="translate(62.333763, 19.635497)"><g/></g></g><g fill="#ff9898" fill-opacity="1"><g transform="translate(64.681616, 19.635497)"><g><path d="M 3.390625 0 L 1.828125 0 L 0.1875 -7.109375 L 1.59375 -7.109375 L 2.671875 -2.109375 L 2.796875 -2.109375 L 4.0625 -7.109375 L 5.265625 -7.109375 L 6.5625 -2.109375 L 6.6875 -2.109375 L 7.765625 -7.109375 L 9.109375 -7.109375 L 7.484375 0 L 5.921875 0 L 4.671875 -4.578125 L 4.5625 -4.578125 Z M 3.390625 0 "/></g></g></g><g fill="#ff9898" fill-opacity="1"><g transform="translate(73.985507, 19.635497)"><g><path d="M 3.875 0.109375 C 3.21875 0.109375 2.640625 -0.0195312 2.140625 -0.28125 C 1.648438 -0.550781 1.265625 -0.957031 0.984375 -1.5 C 0.703125 -2.050781 0.5625 -2.734375 0.5625 -3.546875 C 0.5625 -4.359375 0.703125 -5.035156 0.984375 -5.578125 C 1.265625 -6.128906 1.648438 -6.535156 2.140625 -6.796875 C 2.640625 -7.066406 3.21875 -7.203125 3.875 -7.203125 C 4.519531 -7.203125 5.09375 -7.070312 5.59375 -6.8125 C 6.09375 -6.550781 6.476562 -6.144531 6.75 -5.59375 C 7.03125 -5.039062 7.171875 -4.359375 7.171875 -3.546875 C 7.171875 -2.734375 7.03125 -2.050781 6.75 -1.5 C 6.476562 -0.957031 6.09375 -0.550781 5.59375 -0.28125 C 5.09375 -0.0195312 4.519531 0.109375 3.875 0.109375 Z M 3.875 -1.125 C 4.476562 -1.125 4.9375 -1.316406 5.25 -1.703125 C 5.570312 -2.085938 5.734375 -2.703125 5.734375 -3.546875 C 5.734375 -4.398438 5.570312 -5.019531 5.25 -5.40625 C 4.9375 -5.800781 4.476562 -6 3.875 -6 C 3.269531 -6 2.804688 -5.800781 2.484375 -5.40625 C 2.160156 -5.019531 2 -4.398438 2 -3.546875 C 2 -2.703125 2.160156 -2.085938 2.484375 -1.703125 C 2.804688 -1.316406 3.269531 -1.125 3.875 -1.125 Z M 3.875 -1.125 "/></g></g></g><g fill="#ff9898" fill-opacity="1"><g transform="translate(81.729034, 19.635497)"><g><path d="M 0.921875 0 L 0.921875 -7.109375 L 3.78125 -7.109375 C 4.507812 -7.109375 5.0625 -6.9375 5.4375 -6.59375 C 5.8125 -6.257812 6 -5.789062 6 -5.1875 C 6 -4.757812 5.890625 -4.40625 5.671875 -4.125 C 5.453125 -3.851562 5.125 -3.644531 4.6875 -3.5 L 4.6875 -3.40625 C 4.914062 -3.300781 5.097656 -3.15625 5.234375 -2.96875 C 5.367188 -2.78125 5.5 -2.5 5.625 -2.125 L 6.34375 0 L 4.890625 0 L 4.203125 -2.125 C 4.128906 -2.332031 4.046875 -2.492188 3.953125 -2.609375 C 3.867188 -2.734375 3.753906 -2.820312 3.609375 -2.875 C 3.472656 -2.925781 3.296875 -2.953125 3.078125 -2.953125 L 2.328125 -2.953125 L 2.328125 0 Z M 3.609375 -4.078125 C 4.285156 -4.078125 4.625 -4.394531 4.625 -5.03125 C 4.625 -5.675781 4.285156 -6 3.609375 -6 L 2.328125 -6 L 2.328125 -4.078125 Z M 3.609375 -4.078125 "/></g></g></g><g fill="#ff9898" fill-opacity="1"><g transform="translate(88.373982, 19.635497)"><g><path d="M 3.15625 0.109375 C 2.65625 0.109375 2.210938 0.046875 1.828125 -0.078125 C 1.453125 -0.203125 1.132812 -0.363281 0.875 -0.5625 C 0.613281 -0.757812 0.414062 -0.972656 0.28125 -1.203125 L 1.0625 -2.15625 L 1.1875 -2.15625 C 1.394531 -1.832031 1.660156 -1.578125 1.984375 -1.390625 C 2.316406 -1.203125 2.707031 -1.109375 3.15625 -1.109375 C 3.53125 -1.109375 3.8125 -1.1875 4 -1.34375 C 4.1875 -1.507812 4.28125 -1.726562 4.28125 -2 C 4.28125 -2.175781 4.25 -2.316406 4.1875 -2.421875 C 4.132812 -2.535156 4.035156 -2.632812 3.890625 -2.71875 C 3.742188 -2.800781 3.550781 -2.875 3.3125 -2.9375 L 2.390625 -3.140625 C 1.753906 -3.285156 1.28125 -3.523438 0.96875 -3.859375 C 0.65625 -4.203125 0.5 -4.644531 0.5 -5.1875 C 0.5 -5.582031 0.597656 -5.929688 0.796875 -6.234375 C 1.003906 -6.546875 1.296875 -6.785156 1.671875 -6.953125 C 2.054688 -7.117188 2.519531 -7.203125 3.0625 -7.203125 C 3.601562 -7.203125 4.066406 -7.128906 4.453125 -6.984375 C 4.847656 -6.847656 5.179688 -6.628906 5.453125 -6.328125 L 4.765625 -5.375 L 4.640625 -5.375 C 4.429688 -5.582031 4.195312 -5.738281 3.9375 -5.84375 C 3.6875 -5.945312 3.394531 -6 3.0625 -6 C 2.675781 -6 2.378906 -5.929688 2.171875 -5.796875 C 1.972656 -5.660156 1.875 -5.472656 1.875 -5.234375 C 1.875 -5.015625 1.941406 -4.835938 2.078125 -4.703125 C 2.222656 -4.566406 2.46875 -4.460938 2.8125 -4.390625 L 3.75 -4.203125 C 4.4375 -4.054688 4.9375 -3.804688 5.25 -3.453125 C 5.5625 -3.109375 5.71875 -2.65625 5.71875 -2.09375 C 5.71875 -1.644531 5.617188 -1.253906 5.421875 -0.921875 C 5.234375 -0.597656 4.945312 -0.34375 4.5625 -0.15625 C 4.175781 0.0195312 3.707031 0.109375 3.15625 0.109375 Z M 3.15625 0.109375 "/></g></g></g><g fill="#ff9898" fill-opacity="1"><g transform="translate(94.479356, 19.635497)"><g><path d="M 5.515625 -4.4375 L 5.515625 -7.109375 L 6.90625 -7.109375 L 6.90625 0 L 5.515625 0 L 5.515625 -3.234375 L 2.328125 -3.234375 L 2.328125 0 L 0.921875 0 L 0.921875 -7.109375 L 2.328125 -7.109375 L 2.328125 -4.4375 Z M 5.515625 -4.4375 "/></g></g></g><g fill="#ff9898" fill-opacity="1"><g transform="translate(102.320102, 19.635497)"><g><path d="M 2.328125 0 L 0.921875 0 L 0.921875 -7.109375 L 2.328125 -7.109375 Z M 2.328125 0 "/></g></g></g><g fill="#ff9898" fill-opacity="1"><g transform="translate(105.57695, 19.635497)"><g><path d="M 3.671875 -7.109375 C 4.179688 -7.109375 4.613281 -7.015625 4.96875 -6.828125 C 5.332031 -6.640625 5.601562 -6.378906 5.78125 -6.046875 C 5.96875 -5.710938 6.0625 -5.320312 6.0625 -4.875 C 6.0625 -4.425781 5.96875 -4.035156 5.78125 -3.703125 C 5.601562 -3.367188 5.332031 -3.109375 4.96875 -2.921875 C 4.613281 -2.742188 4.179688 -2.65625 3.671875 -2.65625 L 2.328125 -2.65625 L 2.328125 0 L 0.921875 0 L 0.921875 -7.109375 Z M 3.484375 -3.765625 C 4.265625 -3.765625 4.65625 -4.132812 4.65625 -4.875 C 4.65625 -5.625 4.265625 -6 3.484375 -6 L 2.328125 -6 L 2.328125 -3.765625 Z M 3.484375 -3.765625 "/></g></g></g><g fill="#ff9898" fill-opacity="1"><g transform="translate(112.071202, 19.635497)"><g/></g></g><g fill="#ff9898" fill-opacity="1"><g transform="translate(114.419055, 19.635497)"><g><path d="M 3.484375 -7.109375 C 4.628906 -7.109375 5.503906 -6.804688 6.109375 -6.203125 C 6.722656 -5.609375 7.03125 -4.722656 7.03125 -3.546875 C 7.03125 -2.378906 6.722656 -1.492188 6.109375 -0.890625 C 5.503906 -0.296875 4.628906 0 3.484375 0 L 0.921875 0 L 0.921875 -7.109375 Z M 3.390625 -1.1875 C 4.128906 -1.1875 4.675781 -1.367188 5.03125 -1.734375 C 5.394531 -2.109375 5.578125 -2.710938 5.578125 -3.546875 C 5.578125 -4.378906 5.394531 -4.984375 5.03125 -5.359375 C 4.675781 -5.734375 4.128906 -5.921875 3.390625 -5.921875 L 2.328125 -5.921875 L 2.328125 -1.1875 Z M 3.390625 -1.1875 "/></g></g></g><g fill="#ff9898" fill-opacity="1"><g transform="translate(122.016752, 19.635497)"><g><path d="M 6.8125 0 L 5.34375 0 L 4.8125 -1.640625 L 2.078125 -1.640625 L 1.546875 0 L 0.109375 0 L 2.5625 -7.109375 L 4.359375 -7.109375 Z M 3.375 -5.625 L 2.46875 -2.8125 L 4.421875 -2.8125 L 3.5 -5.625 Z M 3.375 -5.625 "/></g></g></g><g fill="#ff9898" fill-opacity="1"><g transform="translate(128.943636, 19.635497)"><g><path d="M 3.890625 0 L 2.484375 0 L 2.484375 -2.796875 L 0.03125 -7.109375 L 1.546875 -7.109375 L 3.15625 -4.3125 L 3.28125 -4.3125 L 4.875 -7.109375 L 6.34375 -7.109375 L 3.890625 -2.796875 Z M 3.890625 0 "/></g></g></g><path stroke-linecap="butt" transform="matrix(0.738281, 0, 0, 0.738281, 14.557898, 8.859376)" fill="none" stroke-linejoin="miter" d="M 5.72052 4.37037 C 6.413641 4.37037 7.000943 4.497354 7.493007 4.751322 C 7.979779 4.999999 8.350149 5.354497 8.604118 5.809523 C 8.852795 6.26455 8.974488 6.79365 8.974488 7.391534 C 8.974488 7.994708 8.852795 8.523809 8.604118 8.973545 C 8.350149 9.428571 7.979779 9.777777 7.493007 10.031746 C 7.000943 10.285714 6.413641 10.412698 5.72052 10.412698 L 3.905705 10.412698 L 3.905705 14 L 2.000943 14 L 2.000943 4.37037 Z M 5.471842 8.89947 C 6.530044 8.89947 7.059144 8.396825 7.059144 7.391534 C 7.059144 6.380952 6.530044 5.878306 5.471842 5.878306 L 3.905705 5.878306 L 3.905705 8.89947 Z M 18.789303 14 L 16.784012 14 L 16.059144 11.777777 L 12.371314 11.777777 L 11.646446 14 L 9.688774 14 L 13.016816 4.37037 L 15.461261 4.37037 Z M 14.122636 6.380952 L 12.884541 10.179894 L 15.535335 10.179894 L 14.286658 6.380952 Z M 20.180838 14 L 20.180838 4.37037 L 24.048563 4.37037 C 25.043272 4.37037 25.794595 4.597883 26.302531 5.0582 C 26.810468 5.518518 27.064436 6.148148 27.064436 6.957671 C 27.064436 7.544973 26.916288 8.021164 26.619991 8.396825 C 26.323695 8.767195 25.879251 9.05291 25.291949 9.248677 L 25.291949 9.391534 C 25.593536 9.518518 25.842214 9.714285 26.027399 9.973545 C 26.212584 10.232804 26.387187 10.619047 26.556499 11.126984 L 27.519462 14 L 25.56179 14 L 24.619991 11.121693 C 24.524753 10.830687 24.413642 10.608465 24.291949 10.444444 C 24.175547 10.285714 24.022108 10.169312 23.831632 10.095238 C 23.646446 10.026455 23.40306 9.989418 23.106764 9.989418 L 22.0856 9.989418 L 22.0856 14 Z M 23.815759 8.481481 C 24.736394 8.481481 25.202002 8.047619 25.202002 7.190476 C 25.202002 6.31746 24.736394 5.878306 23.815759 5.878306 L 22.0856 5.878306 L 22.0856 8.481481 Z M 37.170256 14 L 35.170256 14 L 34.445389 11.777777 L 30.757558 11.777777 L 30.03269 14 L 28.075018 14 L 31.40306 4.37037 L 33.842214 4.37037 Z M 32.508881 6.380952 L 31.270785 10.179894 L 33.916288 10.179894 L 32.672902 6.380952 Z M 40.408352 14 L 38.561791 14 L 38.561791 4.37037 L 40.741685 4.37037 L 44.60941 10.576719 L 44.784013 10.550264 L 44.784013 4.37037 L 46.614701 4.37037 L 46.614701 14 L 44.66232 14 L 40.572373 7.375661 L 40.408352 7.402116 Z M 55.588247 4.37037 L 55.588247 5.968253 L 52.805178 5.968253 L 52.805178 14 L 50.910998 14 L 50.910998 5.968253 L 48.127929 5.968253 L 48.127929 4.37037 Z M 60.112056 14.137566 C 59.44539 14.137566 58.852797 14.058201 58.334279 13.888889 C 57.810469 13.724867 57.376607 13.507936 57.032691 13.243386 C 56.683485 12.973545 56.418935 12.682539 56.233749 12.359788 L 57.281368 11.079365 L 57.44539 11.079365 C 57.736395 11.513227 58.106765 11.857143 58.55121 12.111111 C 58.995654 12.365079 59.519464 12.492063 60.112056 12.492063 C 60.625284 12.492063 61.006236 12.386243 61.265496 12.169312 C 61.524755 11.952381 61.65703 11.656084 61.65703 11.280423 C 61.65703 11.05291 61.614702 10.862433 61.530046 10.708994 C 61.44539 10.550264 61.307824 10.42328 61.117347 10.312169 C 60.92158 10.201058 60.662321 10.10582 60.334279 10.026455 L 59.096183 9.746031 C 58.228458 9.544973 57.582956 9.216931 57.159675 8.761904 C 56.736395 8.301587 56.524755 7.703703 56.524755 6.973544 C 56.524755 6.428571 56.662321 5.947089 56.932162 5.534391 C 57.207294 5.121693 57.60412 4.804232 58.122638 4.576719 C 58.641157 4.343915 59.265496 4.232804 59.990363 4.232804 C 60.731104 4.232804 61.366025 4.328042 61.895125 4.523809 C 62.424226 4.719576 62.873961 5.021163 63.239041 5.42328 L 62.297242 6.714285 L 62.127929 6.714285 C 61.858088 6.428571 61.545919 6.216931 61.196713 6.074073 C 60.842215 5.931216 60.440099 5.857142 59.990363 5.857142 C 59.466554 5.857142 59.069728 5.95238 58.799887 6.137566 C 58.524755 6.31746 58.387189 6.576719 58.387189 6.89947 C 58.387189 7.201058 58.482427 7.444444 58.672903 7.624338 C 58.86867 7.804232 59.196712 7.941798 59.667612 8.047619 L 60.932162 8.306878 C 61.86867 8.507936 62.545919 8.841269 62.969199 9.312169 C 63.387189 9.783068 63.598829 10.402116 63.598829 11.15873 C 63.598829 11.761904 63.471845 12.285714 63.212586 12.730158 C 62.953326 13.179894 62.561792 13.523809 62.037982 13.767196 C 61.514173 14.015873 60.873961 14.137566 60.112056 14.137566 Z M 71.895126 14 L 69.768141 14 L 67.561792 4.37037 L 69.455972 4.37037 L 70.910999 11.142857 L 71.07502 11.142857 L 72.805179 4.37037 L 74.429517 4.37037 L 76.186131 11.142857 L 76.355443 11.142857 L 77.815761 4.37037 L 79.646449 4.37037 L 77.44539 14 L 75.313115 14 L 73.625284 7.788359 L 73.487718 7.788359 Z M 85.149094 14.137566 C 84.265497 14.137566 83.487719 13.957672 82.81047 13.597883 C 82.138512 13.238095 81.609412 12.68783 81.228459 11.94709 C 80.847507 11.206349 80.657031 10.285714 80.657031 9.185185 C 80.657031 8.084656 80.847507 7.164021 81.228459 6.42328 C 81.609412 5.682539 82.138512 5.132275 82.81047 4.772486 C 83.487719 4.412698 84.265497 4.232804 85.149094 4.232804 C 86.032692 4.232804 86.81047 4.412698 87.482428 4.767195 C 88.149095 5.126984 88.678195 5.677248 89.059148 6.417989 C 89.434809 7.15873 89.625285 8.084656 89.625285 9.185185 C 89.625285 10.285714 89.434809 11.21164 89.059148 11.952381 C 88.678195 12.693121 88.149095 13.243386 87.482428 13.603174 C 86.81047 13.957672 86.032692 14.137566 85.149094 14.137566 Z M 85.149094 12.486772 C 85.963909 12.486772 86.588248 12.222222 87.016819 11.698412 C 87.450682 11.174603 87.662322 10.333333 87.662322 9.185185 C 87.662322 8.037037 87.450682 7.195767 87.016819 6.666666 C 86.588248 6.142857 85.963909 5.878306 85.149094 5.878306 C 84.328989 5.878306 83.699359 6.142857 83.265497 6.666666 C 82.836925 7.195767 82.619994 8.037037 82.619994 9.185185 C 82.619994 10.333333 82.836925 11.174603 83.265497 11.698412 C 83.699359 12.222222 84.328989 12.486772 85.149094 12.486772 Z M 91.635867 14 L 91.635867 4.37037 L 95.503592 4.37037 C 96.503592 4.37037 97.254915 4.597883 97.762852 5.0582 C 98.270788 5.518518 98.519465 6.148148 98.519465 6.957671 C 98.519465 7.544973 98.371317 8.021164 98.075021 8.396825 C 97.778725 8.767195 97.339571 9.05291 96.75227 9.248677 L 96.75227 9.391534 C 97.053857 9.518518 97.297243 9.714285 97.482428 9.973545 C 97.672905 10.232804 97.847508 10.619047 98.01682 11.126984 L 98.974492 14 L 97.022111 14 L 96.080312 11.121693 C 95.979783 10.830687 95.873963 10.608465 95.75227 10.444444 C 95.630576 10.285714 95.477137 10.169312 95.291952 10.095238 C 95.106767 10.026455 94.863381 9.989418 94.561793 9.989418 L 93.540629 9.989418 L 93.540629 14 Z M 95.276079 8.481481 C 96.196714 8.481481 96.657031 8.047619 96.657031 7.190476 C 96.657031 6.31746 96.196714 5.878306 95.276079 5.878306 L 93.540629 5.878306 L 93.540629 8.481481 Z M 103.657032 14.137566 C 102.990365 14.137566 102.392481 14.058201 101.873963 13.888889 C 101.355444 13.724867 100.921582 13.507936 100.572376 13.243386 C 100.22846 12.973545 99.958619 12.682539 99.778725 12.359788 L 100.821053 11.079365 L 100.990365 11.079365 C 101.276079 11.513227 101.64645 11.857143 102.090894 12.111111 C 102.535339 12.365079 103.059148 12.492063 103.657032 12.492063 C 104.164968 12.492063 104.551212 12.386243 104.810471 12.169312 C 105.06973 11.952381 105.196714 11.656084 105.196714 11.280423 C 105.196714 11.05291 105.154386 10.862433 105.06973 10.708994 C 104.990365 10.550264 104.852799 10.42328 104.657032 10.312169 C 104.461265 10.201058 104.202005 10.10582 103.873963 10.026455 L 102.635868 9.746031 C 101.768143 9.544973 101.127931 9.216931 100.69936 8.761904 C 100.276079 8.301587 100.064439 7.703703 100.064439 6.973544 C 100.064439 6.428571 100.202005 5.947089 100.471846 5.534391 C 100.746979 5.121693 101.143804 4.804232 101.662323 4.576719 C 102.186132 4.343915 102.80518 4.232804 103.530048 4.232804 C 104.270788 4.232804 104.911 4.328042 105.440101 4.523809 C 105.969201 4.719576 106.413646 5.021163 106.778725 5.42328 L 105.836926 6.714285 L 105.672905 6.714285 C 105.397773 6.428571 105.085603 6.216931 104.736397 6.074073 C 104.387191 5.931216 103.985074 5.857142 103.530048 5.857142 C 103.006238 5.857142 102.609413 5.95238 102.339571 6.137566 C 102.064439 6.31746 101.932164 6.576719 101.932164 6.89947 C 101.932164 7.201058 102.027402 7.444444 102.217878 7.624338 C 102.408354 7.804232 102.736397 7.941798 103.207296 8.047619 L 104.471847 8.306878 C 105.408355 8.507936 106.085603 8.841269 106.508884 9.312169 C 106.926873 9.783068 107.138513 10.402116 107.138513 11.15873 C 107.138513 11.761904 107.011529 12.285714 106.75227 12.730158 C 106.493011 13.179894 106.101476 13.523809 105.577667 13.767196 C 105.059148 14.015873 104.413646 14.137566 103.657032 14.137566 Z M 115.127932 7.994708 L 115.127932 4.37037 L 117.022112 4.37037 L 117.022112 14 L 115.127932 14 L 115.127932 9.613756 L 110.810471 9.613756 L 110.810471 14 L 108.911 14 L 108.911 4.37037 L 110.810471 4.37037 L 110.810471 7.994708 Z M 121.43481 14 L 119.530048 14 L 119.530048 4.37037 L 121.43481 4.37037 Z M 127.662324 4.37037 C 128.350154 4.37037 128.942747 4.497354 129.42952 4.751322 C 129.921583 4.999999 130.291953 5.354497 130.540631 5.809523 C 130.789308 6.26455 130.916292 6.79365 130.916292 7.391534 C 130.916292 7.994708 130.789308 8.523809 130.540631 8.973545 C 130.291953 9.428571 129.921583 9.777777 129.42952 10.031746 C 128.942747 10.285714 128.350154 10.412698 127.662324 10.412698 L 125.842218 10.412698 L 125.842218 14 L 123.942747 14 L 123.942747 4.37037 Z M 127.413646 8.89947 C 128.471848 8.89947 129.000948 8.396825 129.000948 7.391534 C 129.000948 6.380952 128.471848 5.878306 127.413646 5.878306 L 125.842218 5.878306 L 125.842218 8.89947 Z M 139.381901 4.37037 C 140.942748 4.37037 142.138515 4.772486 142.963912 5.58201 C 143.784018 6.391534 144.196716 7.592592 144.196716 9.185185 C 144.196716 10.772486 143.784018 11.973545 142.963912 12.783068 C 142.138515 13.592592 140.942748 14 139.381901 14 L 135.916292 14 L 135.916292 4.37037 Z M 139.27079 12.396825 C 140.260208 12.396825 141.00624 12.148148 141.498303 11.640211 C 141.990367 11.132275 142.233753 10.312169 142.233753 9.185185 C 142.233753 8.058201 141.990367 7.238095 141.498303 6.730158 C 141.00624 6.222222 140.260208 5.968253 139.27079 5.968253 L 137.821054 5.968253 L 137.821054 12.396825 Z M 154.196716 14 L 152.196716 14 L 151.471849 11.777777 L 147.784018 11.777777 L 147.05915 14 L 145.101478 14 L 148.42952 4.37037 L 150.873965 4.37037 Z M 149.535341 6.380952 L 148.297245 10.179894 L 150.942748 10.179894 L 149.699362 6.380952 Z M 159.614706 14 L 157.709944 14 L 157.709944 10.216931 L 154.387193 4.37037 L 156.429521 4.37037 L 158.625288 8.15873 L 158.789309 8.15873 L 160.948039 4.37037 L 162.942748 4.37037 L 159.614706 10.216931 Z M 159.614706 14 " stroke="#ff3131" stroke-width="0.505916" stroke-opacity="1" stroke-miterlimit="4"/></svg>